<svg width="30" height="30" viewBox="0 0 30 30" fill="none" xmlns="http://www.w3.org/2000/svg">
<g id="arrow right circle">
<path id="Combo shape" fill-rule="evenodd" clip-rule="evenodd" d="M15 30C23.2843 30 30 23.2843 30 15C30 6.71573 23.2843 0 15 0C6.71573 0 0 6.71573 0 15C0 23.2843 6.71573 30 15 30ZM17.2955 9.70451L21.7955 14.2045C22.2348 14.6438 22.2348 15.3562 21.7955 15.7955L17.2955 20.2955C16.8562 20.7348 16.1438 20.7348 15.7045 20.2955C15.2652 19.8562 15.2652 19.1438 15.7045 18.7045L18.284 16.125H9C8.37868 16.125 7.875 15.6213 7.875 15C7.875 14.3787 8.37868 13.875 9 13.875H18.284L15.7045 11.2955C15.2652 10.8562 15.2652 10.1438 15.7045 9.70451C16.1438 9.26517 16.8562 9.26517 17.2955 9.70451Z" fill="#399147"/>
</g>
</svg>
