<svg width="182" height="45" viewBox="0 0 182 45" fill="none" xmlns="http://www.w3.org/2000/svg">
<g id="Group 427319128">
<g id="Group 427319117">
<g id="Yoksehat!">
<path d="M57.38 33.3336V24.3344L50 11.5362H55.2314L59.84 19.7258L64.4797 11.5362H69.6799L62.3 24.3344V33.3336H57.38Z" fill="#373737"/>
<path d="M75.6694 33.5827C70.8117 33.5827 67.3863 30.1574 67.3863 25.4866C67.3863 20.8157 70.8117 17.3904 75.6694 17.3904C80.4648 17.3904 83.9524 20.8157 83.9524 25.4866C83.9524 30.1574 80.4648 33.5827 75.6694 33.5827ZM75.6694 29.6903C77.8802 29.6903 79.3749 27.9777 79.3749 25.4866C79.3749 22.9954 77.8802 21.2828 75.6694 21.2828C73.4273 21.2828 71.9327 22.9954 71.9327 25.4866C71.9327 27.9777 73.4273 29.6903 75.6694 29.6903Z" fill="#373737"/>
<path d="M97.2714 33.3336L93.0054 26.8567L91.2927 28.5693V33.3336H86.6841V11.2871H91.2927V22.7775L96.5241 17.6395H102.254L96.057 23.805L102.721 33.3336H97.2714Z" fill="#373737"/>
<path d="M109.714 33.5827C105.884 33.5827 103.517 31.2473 102.707 28.8807L106.382 27.4483C106.755 28.9119 107.97 30.1263 109.714 30.1263C110.928 30.1263 111.738 29.5347 111.738 28.6628C111.738 26.2028 103.424 27.8531 103.424 21.9056C103.424 19.4456 105.572 17.3904 109.029 17.3904C112.236 17.3904 114.883 18.9473 115.599 21.2205L111.925 22.7463C111.52 21.3139 110.243 20.66 109.184 20.66C108.157 20.66 107.441 21.0959 107.441 21.781C107.441 24.2721 115.879 22.217 115.879 28.5693C115.879 31.2784 113.388 33.5827 109.714 33.5827Z" fill="#373737"/>
<path d="M133.503 25.0818C133.503 25.7045 133.472 26.4519 133.441 26.7944H122.168C122.604 28.725 123.912 29.7838 125.843 29.7838C127.4 29.7838 128.552 29.0676 128.894 27.7597L133.191 28.9119C132.257 31.8701 129.455 33.5827 125.718 33.5827C120.3 33.5827 117.653 29.379 117.653 25.4866C117.653 21.5942 120.02 17.3904 125.438 17.3904C131.105 17.3904 133.503 21.5942 133.503 25.0818ZM122.23 23.5559H128.614C128.458 21.9678 127.462 20.7846 125.438 20.7846C123.787 20.7846 122.666 21.7187 122.23 23.5559Z" fill="#373737"/>
<path d="M136.282 33.3336V11.2871H140.859V19.757C141.824 18.2934 143.537 17.3904 145.623 17.3904C149.173 17.3904 151.478 19.6324 151.478 23.12V33.3336H146.931V24.3033C146.931 22.5595 145.841 21.4385 144.16 21.4385C141.98 21.4385 140.859 23.2445 140.859 26.483V33.3336H136.282Z" fill="#373737"/>
<path d="M161.148 17.3904C165.414 17.3904 168.31 19.6013 168.31 24.023V33.3336H163.889V31.3407C162.985 32.7108 161.211 33.5827 159.467 33.5827C156.415 33.5827 154.267 31.5276 154.267 28.9119C154.267 25.798 156.54 24.1164 161.055 23.6494L163.889 23.3691V23.2757C163.889 21.7187 162.83 20.7846 161.148 20.7846C159.654 20.7846 158.564 21.6876 158.408 23.2134L154.422 22.4661C154.92 19.3833 157.785 17.3904 161.148 17.3904ZM160.588 30.3131C162.643 30.3131 163.857 28.6628 163.889 26.8255V26.5764L160.961 26.919C159.404 27.0747 158.626 27.8531 158.626 28.7562C158.626 29.6281 159.311 30.3131 160.588 30.3131Z" fill="#373737"/>
<path d="M181.273 33.1779C180.526 33.427 179.654 33.5827 178.72 33.5827C175.326 33.5827 172.741 31.7767 172.741 27.9777V21.4385H170.25V17.6395H172.741V13.0932H177.319V17.6395H181.118V21.4385H177.319V27.3861C177.319 28.7873 178.066 29.5969 179.187 29.5969C179.748 29.5969 180.433 29.5035 180.962 29.2233L181.273 33.1779Z" fill="#373737"/>
</g>
<rect id="Rectangle 34624300" width="44.87" height="44.87" rx="8" fill="#399147"/>
<path id="+" d="M34 19V25.0484H25.0484V34H19V25H10V19H19V10H25V19H34Z" fill="#FDFDFD"/>
</g>
</g>
</svg>
