<svg width="72" height="72" viewBox="0 0 72 72" fill="none" xmlns="http://www.w3.org/2000/svg">
<g id="Chat">
<g id="Iconly/Bold/Chat">
<g id="Chat_2">
<path id="Vector" d="M35.6147 6.8147C52.4443 6.8147 65.185 20.6132 65.185 36.3998C65.185 54.7088 50.2517 66.0739 35.5554 66.0739C30.6961 66.0739 25.3036 64.7683 20.9776 62.2163C19.4665 61.2964 18.1924 60.6139 16.5628 61.148L10.5776 62.9285C9.06652 63.4033 7.70356 62.2163 8.148 60.6139L10.1332 53.9669C10.4591 53.047 10.3999 52.0678 9.92578 51.2962C7.37763 46.6077 5.92578 41.4741 5.92578 36.4888C5.92578 20.8802 18.3999 6.8147 35.6147 6.8147ZM49.1554 32.7202C47.0517 32.7202 45.3628 34.4116 45.3628 36.5185C45.3628 38.5957 47.0517 40.3168 49.1554 40.3168C51.2591 40.3168 52.948 38.5957 52.948 36.5185C52.948 34.4116 51.2591 32.7202 49.1554 32.7202ZM35.4961 32.7202C33.4221 32.6905 31.7036 34.4116 31.7036 36.4888C31.7036 38.5957 33.3924 40.2871 35.4961 40.3168C37.5998 40.3168 39.2887 38.5957 39.2887 36.5185C39.2887 34.4116 37.5998 32.7202 35.4961 32.7202ZM21.8369 32.7202C19.7332 32.7202 18.0443 34.4116 18.0443 36.5185C18.0443 38.5957 19.7628 40.3168 21.8369 40.3168C23.9406 40.2871 25.6295 38.5957 25.6295 36.5185C25.6295 34.4116 23.9406 32.7202 21.8369 32.7202Z" fill="#F6FAF7"/>
</g>
</g>
</g>
</svg>
