<svg width="72" height="72" viewBox="0 0 72 72" fill="none" xmlns="http://www.w3.org/2000/svg">
<g id="Document">
<g id="Iconly/Bold/Document">
<g id="Document_2">
<path id="Vector" d="M48.8628 6.8147C58.0154 6.8147 63.1117 12.0888 63.1117 21.1258V51.7332C63.1117 60.9184 58.0154 66.074 48.8628 66.074H24.0302C15.0228 66.074 9.77832 60.9184 9.77832 51.7332V21.1258C9.77832 12.0888 15.0228 6.8147 24.0302 6.8147H48.8628ZM24.8302 47.5258C23.9413 47.4369 23.082 47.8517 22.6079 48.6221C22.1339 49.3628 22.1339 50.3406 22.6079 51.111C23.082 51.8517 23.9413 52.2962 24.8302 52.1777H48.0598C49.242 52.0591 50.1339 51.0488 50.1339 49.8665C50.1339 48.6517 49.242 47.6443 48.0598 47.5258H24.8302ZM48.0598 34.0117H24.8302C23.5531 34.0117 22.5191 35.0517 22.5191 36.3258C22.5191 37.5999 23.5531 38.6369 24.8302 38.6369H48.0598C49.3339 38.6369 50.3709 37.5999 50.3709 36.3258C50.3709 35.0517 49.3339 34.0117 48.0598 34.0117ZM33.6865 20.5925H24.8302V20.6221C23.5531 20.6221 22.5191 21.6591 22.5191 22.9332C22.5191 24.2073 23.5531 25.2443 24.8302 25.2443H33.6865C34.9635 25.2443 36.0005 24.2073 36.0005 22.9006C36.0005 21.6295 34.9635 20.5925 33.6865 20.5925Z" fill="#F6FAF7"/>
</g>
</g>
</g>
</svg>
