<svg width="68" height="140" viewBox="0 0 68 140" fill="none" xmlns="http://www.w3.org/2000/svg">
<g id="Group 8">
<g id="Group">
<path id="Vector" d="M63.8971 137.564C64.0957 136.461 65.1883 135.659 66.2809 135.86C67.3735 136.06 68.1681 137.163 67.9695 138.265C67.7708 139.368 66.6782 140.17 65.5856 139.969C64.3937 139.769 63.6984 138.666 63.8971 137.564Z" fill="#399147"/>
<path id="Vector_2" d="M47.9059 137.564C48.1046 136.461 49.1971 135.659 50.2897 135.86C51.3823 136.06 52.1769 137.163 51.9783 138.265C51.7796 139.368 50.6871 140.17 49.5945 139.969C48.5019 139.769 47.7073 138.666 47.9059 137.564Z" fill="#399147"/>
<path id="Vector_3" d="M32.0138 137.564C32.2125 136.461 33.305 135.659 34.3976 135.86C35.4902 136.06 36.2848 137.163 36.0862 138.265C35.8875 139.368 34.795 140.17 33.7024 139.969C32.5105 139.769 31.7159 138.666 32.0138 137.564Z" fill="#399147"/>
<path id="Vector_4" d="M16.0221 137.564C16.2207 136.461 17.3133 135.659 18.4059 135.86C19.4985 136.06 20.2931 137.163 20.0945 138.265C19.8958 139.368 18.8032 140.17 17.7106 139.969C16.5187 139.769 15.8234 138.666 16.0221 137.564Z" fill="#399147"/>
<path id="Vector_5" d="M0.0304287 137.564C0.229081 136.461 1.32169 135.659 2.41427 135.86C3.50686 136.06 4.30142 137.163 4.10277 138.265C3.90412 139.368 2.81157 140.17 1.71898 139.969C0.626397 139.769 -0.168223 138.666 0.0304287 137.564Z" fill="#399147"/>
</g>
<g id="Group_2">
<path id="Vector_6" d="M63.8971 124.032C64.0957 122.929 65.1883 122.128 66.2809 122.328C67.3735 122.529 68.1681 123.631 67.9695 124.734C67.7708 125.836 66.6782 126.638 65.5856 126.438C64.3937 126.237 63.6984 125.135 63.8971 124.032Z" fill="#399147"/>
<path id="Vector_7" d="M47.9059 124.032C48.1046 122.929 49.1971 122.128 50.2897 122.328C51.3823 122.529 52.1769 123.631 51.9783 124.734C51.7796 125.836 50.6871 126.638 49.5945 126.438C48.5019 126.237 47.7073 125.135 47.9059 124.032Z" fill="#399147"/>
<path id="Vector_8" d="M32.0138 124.032C32.2125 122.929 33.305 122.128 34.3976 122.328C35.4902 122.529 36.2848 123.631 36.0862 124.734C35.8875 125.836 34.795 126.638 33.7024 126.438C32.5105 126.237 31.7159 125.135 32.0138 124.032Z" fill="#399147"/>
<path id="Vector_9" d="M16.0221 124.032C16.2207 122.929 17.3133 122.128 18.4059 122.328C19.4985 122.529 20.2931 123.631 20.0945 124.734C19.8958 125.836 18.8032 126.638 17.7106 126.438C16.5187 126.237 15.8234 125.135 16.0221 124.032Z" fill="#399147"/>
<path id="Vector_10" d="M0.0304287 124.032C0.229081 122.929 1.32169 122.128 2.41427 122.328C3.50686 122.529 4.30142 123.631 4.10277 124.734C3.90412 125.836 2.81157 126.638 1.71898 126.438C0.626397 126.237 -0.168223 125.135 0.0304287 124.032Z" fill="#399147"/>
</g>
<g id="Group_3">
<path id="Vector_11" d="M63.8971 110.4C64.0957 109.298 65.1883 108.496 66.2809 108.696C67.3735 108.897 68.1681 109.999 67.9695 111.102C67.7708 112.204 66.6782 113.006 65.5856 112.806C64.3937 112.605 63.6984 111.603 63.8971 110.4Z" fill="#399147"/>
<path id="Vector_12" d="M47.9059 110.4C48.1046 109.298 49.1971 108.496 50.2897 108.696C51.3823 108.897 52.1769 109.999 51.9783 111.102C51.7796 112.204 50.6871 113.006 49.5945 112.806C48.5019 112.605 47.7073 111.603 47.9059 110.4Z" fill="#399147"/>
<path id="Vector_13" d="M32.0138 110.4C32.2125 109.298 33.305 108.496 34.3976 108.696C35.4902 108.897 36.2848 109.999 36.0862 111.102C35.8875 112.204 34.795 113.006 33.7024 112.806C32.5105 112.605 31.7159 111.603 32.0138 110.4Z" fill="#399147"/>
<path id="Vector_14" d="M16.0221 110.4C16.2207 109.298 17.3133 108.496 18.4059 108.696C19.4985 108.897 20.2931 109.999 20.0945 111.102C19.8958 112.204 18.8032 113.006 17.7106 112.806C16.5187 112.605 15.8234 111.603 16.0221 110.4Z" fill="#399147"/>
<path id="Vector_15" d="M0.0304287 110.4C0.229081 109.298 1.32169 108.496 2.41427 108.696C3.50686 108.897 4.30142 109.999 4.10277 111.102C3.90412 112.204 2.81157 113.006 1.71898 112.806C0.626397 112.605 -0.168223 111.603 0.0304287 110.4Z" fill="#399147"/>
</g>
<g id="Group_4">
<path id="Vector_16" d="M63.8971 96.8688C64.0957 95.7662 65.1883 94.9643 66.2809 95.1648C67.3735 95.3653 68.1681 96.4679 67.9695 97.5704C67.7708 98.673 66.6782 99.4748 65.5856 99.2744C64.3937 99.0739 63.6984 97.9714 63.8971 96.8688Z" fill="#399147"/>
<path id="Vector_17" d="M47.9059 96.8688C48.1046 95.7662 49.1971 94.9643 50.2897 95.1648C51.3823 95.3653 52.1769 96.4679 51.9783 97.5704C51.7796 98.673 50.6871 99.4748 49.5945 99.2744C48.5019 99.0739 47.7073 97.9714 47.9059 96.8688Z" fill="#399147"/>
<path id="Vector_18" d="M32.0138 96.8688C32.2125 95.7662 33.305 94.9643 34.3976 95.1648C35.4902 95.3653 36.2848 96.4679 36.0862 97.5704C35.8875 98.673 34.795 99.4748 33.7024 99.2744C32.5105 99.0739 31.7159 97.9714 32.0138 96.8688Z" fill="#399147"/>
<path id="Vector_19" d="M16.0221 96.8688C16.2207 95.7662 17.3133 94.9643 18.4059 95.1648C19.4985 95.3653 20.2931 96.4679 20.0945 97.5704C19.8958 98.673 18.8032 99.4748 17.7106 99.2744C16.5187 99.0739 15.8234 97.9714 16.0221 96.8688Z" fill="#399147"/>
<path id="Vector_20" d="M0.0304287 96.8688C0.229081 95.7662 1.32169 94.9643 2.41427 95.1648C3.50686 95.3653 4.30142 96.4679 4.10277 97.5704C3.90412 98.673 2.81157 99.4748 1.71898 99.2744C0.626397 99.0739 -0.168223 97.9714 0.0304287 96.8688Z" fill="#399147"/>
</g>
<g id="Group_5">
<path id="Vector_21" d="M63.8971 83.3372C64.0957 82.2347 65.1883 81.4328 66.2809 81.6333C67.3735 81.8337 68.1681 82.9363 67.9695 84.0389C67.7708 85.1415 66.6782 85.9433 65.5856 85.7428C64.3937 85.5423 63.6984 84.4398 63.8971 83.3372Z" fill="#399147"/>
<path id="Vector_22" d="M47.9059 83.3372C48.1046 82.2347 49.1971 81.4328 50.2897 81.6333C51.3823 81.8337 52.1769 82.9363 51.9783 84.0389C51.7796 85.1415 50.6871 85.9433 49.5945 85.7428C48.5019 85.5423 47.7073 84.4398 47.9059 83.3372Z" fill="#399147"/>
<path id="Vector_23" d="M32.0138 83.3372C32.2125 82.2347 33.305 81.4328 34.3976 81.6333C35.4902 81.8337 36.2848 82.9363 36.0862 84.0389C35.8875 85.1415 34.795 85.9433 33.7024 85.7428C32.5105 85.5423 31.7159 84.4398 32.0138 83.3372Z" fill="#399147"/>
<path id="Vector_24" d="M16.0221 83.3372C16.2207 82.2347 17.3133 81.4328 18.4059 81.6333C19.4985 81.8337 20.2931 82.9363 20.0945 84.0389C19.8958 85.1415 18.8032 85.9433 17.7106 85.7428C16.5187 85.5423 15.8234 84.4398 16.0221 83.3372Z" fill="#399147"/>
<path id="Vector_25" d="M0.0304287 83.3372C0.229081 82.2347 1.32169 81.4328 2.41427 81.6333C3.50686 81.8337 4.30142 82.9363 4.10277 84.0389C3.90412 85.1415 2.81157 85.9433 1.71898 85.7428C0.626397 85.5423 -0.168223 84.4398 0.0304287 83.3372Z" fill="#399147"/>
</g>
<g id="Group_6">
<path id="Vector_26" d="M63.8971 69.7055C64.0957 68.6029 65.1883 67.8011 66.2809 68.0015C67.3735 68.202 68.1681 69.3045 67.9695 70.4071C67.7708 71.5097 66.6782 72.3116 65.5856 72.1111C64.3937 72.0109 63.6984 70.9083 63.8971 69.7055Z" fill="#399147"/>
<path id="Vector_27" d="M47.9059 69.7055C48.1046 68.6029 49.1971 67.8011 50.2897 68.0015C51.3823 68.202 52.1769 69.3045 51.9783 70.4071C51.7796 71.5097 50.6871 72.3116 49.5945 72.1111C48.5019 72.0109 47.7073 70.9083 47.9059 69.7055Z" fill="#399147"/>
<path id="Vector_28" d="M32.0138 69.7055C32.2125 68.6029 33.305 67.8011 34.3976 68.0015C35.4902 68.202 36.2848 69.3045 36.0862 70.4071C35.8875 71.5097 34.795 72.3116 33.7024 72.1111C32.5105 72.0109 31.7159 70.9083 32.0138 69.7055Z" fill="#399147"/>
<path id="Vector_29" d="M16.0221 69.7055C16.2207 68.6029 17.3133 67.8011 18.4059 68.0015C19.4985 68.202 20.2931 69.3045 20.0945 70.4071C19.8958 71.5097 18.8032 72.3116 17.7106 72.1111C16.5187 72.0109 15.8234 70.9083 16.0221 69.7055Z" fill="#399147"/>
<path id="Vector_30" d="M0.0304287 69.7055C0.229081 68.6029 1.32169 67.8011 2.41427 68.0015C3.50686 68.202 4.30142 69.3045 4.10277 70.4071C3.90412 71.5097 2.81157 72.3116 1.71898 72.1111C0.626397 72.0109 -0.168223 70.9083 0.0304287 69.7055Z" fill="#399147"/>
</g>
<g id="Group_7">
<path id="Vector_31" d="M63.8971 56.1739C64.0957 55.0713 65.1883 54.2695 66.2809 54.47C67.3735 54.6705 68.1681 55.773 67.9695 56.8756C67.7708 57.9781 66.6782 58.78 65.5856 58.5795C64.3937 58.3791 63.6984 57.2765 63.8971 56.1739Z" fill="#399147"/>
<path id="Vector_32" d="M47.9059 56.1739C48.1046 55.0713 49.1971 54.2695 50.2897 54.47C51.3823 54.6705 52.1769 55.773 51.9783 56.8756C51.7796 57.9781 50.6871 58.78 49.5945 58.5795C48.5019 58.3791 47.7073 57.2765 47.9059 56.1739Z" fill="#399147"/>
<path id="Vector_33" d="M32.0138 56.1739C32.2125 55.0713 33.305 54.2695 34.3976 54.47C35.4902 54.6705 36.2848 55.773 36.0862 56.8756C35.8875 57.9781 34.795 58.78 33.7024 58.5795C32.5105 58.3791 31.7159 57.2765 32.0138 56.1739Z" fill="#399147"/>
<path id="Vector_34" d="M16.0221 56.1739C16.2207 55.0713 17.3133 54.2695 18.4059 54.47C19.4985 54.6705 20.2931 55.773 20.0945 56.8756C19.8958 57.9781 18.8032 58.78 17.7106 58.5795C16.5187 58.3791 15.8234 57.2765 16.0221 56.1739Z" fill="#399147"/>
<path id="Vector_35" d="M0.0304287 56.1739C0.229081 55.0713 1.32169 54.2695 2.41427 54.47C3.50686 54.6705 4.30142 55.773 4.10277 56.8756C3.90412 57.9781 2.81157 58.78 1.71898 58.5795C0.626397 58.3791 -0.168223 57.2765 0.0304287 56.1739Z" fill="#399147"/>
</g>
<g id="Group_8">
<path id="Vector_36" d="M63.8971 42.6424C64.0957 41.5398 65.1883 40.738 66.2809 40.9384C67.3735 41.1389 68.1681 42.2414 67.9695 43.344C67.7708 44.4466 66.6782 45.2485 65.5856 45.048C64.3937 44.8475 63.6984 43.7449 63.8971 42.6424Z" fill="#399147"/>
<path id="Vector_37" d="M47.9059 42.6424C48.1046 41.5398 49.1971 40.738 50.2897 40.9384C51.3823 41.1389 52.1769 42.2414 51.9783 43.344C51.7796 44.4466 50.6871 45.2485 49.5945 45.048C48.5019 44.8475 47.7073 43.7449 47.9059 42.6424Z" fill="#399147"/>
<path id="Vector_38" d="M32.0138 42.6424C32.2125 41.5398 33.305 40.738 34.3976 40.9384C35.4902 41.1389 36.2848 42.2414 36.0862 43.344C35.8875 44.4466 34.795 45.2485 33.7024 45.048C32.5105 44.8475 31.7159 43.7449 32.0138 42.6424Z" fill="#399147"/>
<path id="Vector_39" d="M16.0221 42.6424C16.2207 41.5398 17.3133 40.738 18.4059 40.9384C19.4985 41.1389 20.2931 42.2414 20.0945 43.344C19.8958 44.4466 18.8032 45.2485 17.7106 45.048C16.5187 44.8475 15.8234 43.7449 16.0221 42.6424Z" fill="#399147"/>
<path id="Vector_40" d="M0.0304287 42.6424C0.229081 41.5398 1.32169 40.738 2.41427 40.9384C3.50686 41.1389 4.30142 42.2414 4.10277 43.344C3.90412 44.4466 2.81157 45.2485 1.71898 45.048C0.626397 44.8475 -0.168223 43.7449 0.0304287 42.6424Z" fill="#399147"/>
</g>
<g id="Group_9">
<path id="Vector_41" d="M63.8971 29.1109C64.0957 28.0083 65.1883 27.2065 66.2809 27.4069C67.3735 27.6074 68.1681 28.7099 67.9695 29.8125C67.7708 30.9151 66.6782 31.717 65.5856 31.5165C64.3937 31.316 63.6984 30.2134 63.8971 29.1109Z" fill="#399147"/>
<path id="Vector_42" d="M49.9913 27.3067C48.8393 27.3067 47.9054 28.2491 47.9054 29.4116C47.9054 30.5741 48.8393 31.5165 49.9913 31.5165C51.1432 31.5165 52.0771 30.5741 52.0771 29.4116C52.0771 28.2491 51.1432 27.3067 49.9913 27.3067Z" fill="#399147"/>
<path id="Vector_43" d="M33.7554 27.3465C32.6141 27.5034 31.8148 28.5644 31.9703 29.7162C32.1259 30.868 33.1772 31.6745 34.3186 31.5176C35.46 31.3606 36.2592 30.2997 36.1037 29.1479C35.9482 27.9961 34.8968 27.1895 33.7554 27.3465Z" fill="#399147"/>
<path id="Vector_44" d="M16.0221 29.1109C16.2207 28.0083 17.3133 27.2065 18.4059 27.4069C19.4985 27.6074 20.2931 28.7099 20.0945 29.8125C19.8958 30.9151 18.8032 31.717 17.7106 31.5165C16.5187 31.316 15.8234 30.2134 16.0221 29.1109Z" fill="#399147"/>
<path id="Vector_45" d="M0.0304287 29.1109C0.229081 28.0083 1.32169 27.2065 2.41427 27.4069C3.50686 27.6074 4.30142 28.7099 4.10277 29.8125C3.90412 30.9151 2.81157 31.717 1.71898 31.5165C0.626397 31.316 -0.168223 30.2134 0.0304287 29.1109Z" fill="#399147"/>
</g>
<g id="Group_10">
<path id="Vector_46" d="M63.8971 15.4791C64.0957 14.3766 65.1883 13.5747 66.2809 13.7752C67.3735 13.9756 68.1681 15.0782 67.9695 16.1808C67.7708 17.2834 66.6782 18.0852 65.5856 17.8848C64.3937 17.6843 63.6984 16.682 63.8971 15.4791Z" fill="#399147"/>
<path id="Vector_47" d="M49.9913 13.7751C48.8393 13.7751 47.9054 14.7175 47.9054 15.88C47.9054 17.0426 48.8393 17.9849 49.9913 17.9849C51.1432 17.9849 52.0771 17.0426 52.0771 15.88C52.0771 14.7175 51.1432 13.7751 49.9913 13.7751Z" fill="#399147"/>
<path id="Vector_48" d="M33.7598 13.8152C32.6185 13.9722 31.8192 15.0331 31.9747 16.185C32.1303 17.3368 33.1816 18.1432 34.323 17.9863C35.4644 17.8294 36.2636 16.7684 36.1081 15.6166C35.9525 14.4648 34.9012 13.6583 33.7598 13.8152Z" fill="#399147"/>
<path id="Vector_49" d="M16.0221 15.4791C16.2207 14.3766 17.3133 13.5747 18.4059 13.7752C19.4985 13.9756 20.2931 15.0782 20.0945 16.1808C19.8958 17.2834 18.8032 18.0852 17.7106 17.8848C16.5187 17.6843 15.8234 16.682 16.0221 15.4791Z" fill="#399147"/>
<path id="Vector_50" d="M0.0304287 15.4791C0.229081 14.3766 1.32169 13.5747 2.41427 13.7752C3.50686 13.9756 4.30142 15.0782 4.10277 16.1808C3.90412 17.2834 2.81157 18.0852 1.71898 17.8848C0.626397 17.6843 -0.168223 16.682 0.0304287 15.4791Z" fill="#399147"/>
</g>
<g id="Group_11">
<path id="Vector_51" d="M63.8971 1.94759C64.0957 0.845025 65.1883 0.043144 66.2809 0.243611C67.3735 0.444078 68.1681 1.54667 67.9695 2.64924C67.7708 3.75181 66.6782 4.55369 65.5856 4.35322C64.3937 4.15276 63.6984 3.05016 63.8971 1.94759Z" fill="#399147"/>
<path id="Vector_52" d="M49.9913 0.24361C48.8393 0.24361 47.9054 1.18604 47.9054 2.34855C47.9054 3.51106 48.8393 4.45343 49.9913 4.45343C51.1432 4.45343 52.0771 3.51106 52.0771 2.34855C52.0771 1.18604 51.1432 0.24361 49.9913 0.24361Z" fill="#399147"/>
<path id="Vector_53" d="M33.7637 0.28415C32.6224 0.441088 31.8231 1.50208 31.9786 2.65389C32.1342 3.8057 33.1855 4.61218 34.3269 4.45524C35.4683 4.2983 36.2675 3.23738 36.112 2.08557C35.9565 0.933755 34.9051 0.127211 33.7637 0.28415Z" fill="#399147"/>
<path id="Vector_54" d="M16.0221 1.94759C16.2207 0.845025 17.3133 0.043144 18.4059 0.243611C19.4985 0.444078 20.2931 1.54667 20.0945 2.64924C19.8958 3.75181 18.8032 4.55369 17.7106 4.35322C16.5187 4.15276 15.8234 3.05016 16.0221 1.94759Z" fill="#399147"/>
<path id="Vector_55" d="M0.0304287 1.94759C0.229081 0.845025 1.32169 0.043144 2.41427 0.243611C3.50686 0.444078 4.30142 1.54667 4.10277 2.64924C3.90412 3.75181 2.81157 4.55369 1.71898 4.35322C0.626397 4.15276 -0.168223 3.05016 0.0304287 1.94759Z" fill="#399147"/>
</g>
</g>
</svg>
