<svg width="39" height="61" viewBox="0 0 39 61" fill="none" xmlns="http://www.w3.org/2000/svg">
<path id="Vector" d="M33.659 60.2777C36.1166 60.2777 38.1077 58.2832 38.1034 55.8255L38.0833 44.3014C38.0812 43.0935 37.5876 41.9385 36.7161 41.1022L29.0047 33.7028C27.1832 31.9551 27.1814 29.0429 29.0007 27.2929L36.7201 19.8673C37.5892 19.0313 38.0812 17.8779 38.0833 16.672L38.1034 5.17436C38.1077 2.71674 36.1166 0.722168 33.659 0.722168H5.22227C2.76767 0.722168 0.777832 2.71201 0.777832 5.16661V16.6906C0.777832 17.9031 1.27321 19.063 2.14913 19.9014L9.86357 27.2852C11.6936 29.0367 11.6917 31.9612 9.85955 33.7105L2.15315 41.0682C1.27478 41.9068 0.777832 43.0684 0.777832 44.2828V55.8333C0.777832 58.2879 2.76768 60.2777 5.22228 60.2777H33.659ZM8.37135 18.4125C7.49543 17.5741 7.00005 16.4142 7.00005 15.2017V11.1222C7.00005 8.66757 8.9899 6.67772 11.4445 6.67772H27.4445C29.8991 6.67772 31.8889 8.66757 31.8889 11.1222V15.2017C31.8889 16.4142 31.3936 17.5741 30.5176 18.4125L22.5176 26.0696C20.7991 27.7146 18.0899 27.7146 16.3714 26.0696L8.37135 18.4125Z" fill="#F6FAF7"/>
</svg>
